HIERARCHY
ROOT joint_Root
{
	OFFSET 0.0 0.0 0.0
	CHANNELS 6 Xposition Yposition Zposition Zrotation Xrotation Yrotation 
	JOINT Hips
	{
		OFFSET -17.1583 93.1646 452.98
		CHANNELS 6 Xposition Yposition Zposition Zrotation Xrotation Yrotation 
		JOINT Spine
		{
			OFFSET 15.7357 0.0 0.0
			CHANNELS 6 Xposition Yposition Zposition Zrotation Xrotation Yrotation 
			JOINT Chest
			{
				OFFSET 8.98455 -0.406207 0.0
				CHANNELS 6 Xposition Yposition Zposition Zrotation Xrotation Yrotation 
				JOINT Neck
				{
					OFFSET 16.3773 0.0 0.0
					CHANNELS 6 Xposition Yposition Zposition Zrotation Xrotation Yrotation 
					JOINT Head
					{
						OFFSET 6.45672 0.0 0.0
						CHANNELS 6 Xposition Yposition Zposition Zrotation Xrotation Yrotation 
						End Site
						{
							OFFSET 0.0 0.0 0.0
						}
					}
				}
				JOINT Shoulder_L
				{
					OFFSET 12.9942 -0.242716 4.98039
					CHANNELS 6 Xposition Yposition Zposition Zrotation Xrotation Yrotation 
					JOINT UpperArm_L
					{
						OFFSET 5.34809 0.0 0.0
						CHANNELS 6 Xposition Yposition Zposition Zrotation Xrotation Yrotation 
						JOINT LowerArm_L
						{
							OFFSET 24.3286 1.87007e-05 0.0
							CHANNELS 6 Xposition Yposition Zposition Zrotation Xrotation Yrotation 
							JOINT Hand_L
							{
								OFFSET 22.2916 0.0 0.0
								CHANNELS 6 Xposition Yposition Zposition Zrotation Xrotation Yrotation 
								End Site
								{
									OFFSET 0.0 0.0 0.0
								}
							}
						}
					}
				}
				JOINT Shoulder_R
				{
					OFFSET 12.9945 -0.242716 -4.98039
					CHANNELS 6 Xposition Yposition Zposition Zrotation Xrotation Yrotation 
					JOINT UpperArm_R
					{
						OFFSET -5.34813 0.0 0.0
						CHANNELS 6 Xposition Yposition Zposition Zrotation Xrotation Yrotation 
						JOINT LowerArm_R
						{
							OFFSET -24.3289 0.000322201 0.0
							CHANNELS 6 Xposition Yposition Zposition Zrotation Xrotation Yrotation 
							JOINT Hand_R
							{
								OFFSET -22.2915 -0.000108084 0.0
								CHANNELS 6 Xposition Yposition Zposition Zrotation Xrotation Yrotation 
								End Site
								{
									OFFSET 0.0 0.0 0.0
								}
							}
						}
					}
				}
			}
		}
		JOINT UpperLeg_L
		{
			OFFSET -2.19248 -6.46944 0.0
			CHANNELS 6 Xposition Yposition Zposition Zrotation Xrotation Yrotation 
			JOINT LowerLeg_L
			{
				OFFSET 39.0811 0.0 -1.23785e-05
				CHANNELS 6 Xposition Yposition Zposition Zrotation Xrotation Yrotation 
				JOINT Foot_L
				{
					OFFSET 40.9854 0.0 -1.26872e-05
					CHANNELS 6 Xposition Yposition Zposition Zrotation Xrotation Yrotation 
					JOINT Toes_L
					{
						OFFSET 11.7543 0.0 0.0
						CHANNELS 6 Xposition Yposition Zposition Zrotation Xrotation Yrotation 
						End Site
						{
							OFFSET 0.0 0.0 0.0
						}
					}
				}
			}
		}
		JOINT UpperLeg_R
		{
			OFFSET -2.19251 6.46944 0.0
			CHANNELS 6 Xposition Yposition Zposition Zrotation Xrotation Yrotation 
			JOINT LowerLeg_R
			{
				OFFSET -39.0811 -0.00228153 -0.0401928
				CHANNELS 6 Xposition Yposition Zposition Zrotation Xrotation Yrotation 
				JOINT Foot_R
				{
					OFFSET -40.9854 0.0 0.0
					CHANNELS 6 Xposition Yposition Zposition Zrotation Xrotation Yrotation 
					JOINT Toes_R
					{
						OFFSET -11.7543 0.0 0.0
						CHANNELS 6 Xposition Yposition Zposition Zrotation Xrotation Yrotation 
						End Site
						{
							OFFSET 0.0 0.0 0.0
						}
					}
				}
			}
		}
	}
}
MOTION
Frames:	5
Frame Time:	0.0333333
0.000000 0.000000 0.000000 0.000000 0.000000 -0.000000 -1.605570 92.501800 -0.532244 85.346500 1.071890 1.038160 15.735700 0.000005 -0.000001 63.198600 88.360800 -60.932200 8.984550 -0.406207 -0.000000 -4.802680 -1.725250 4.464220 16.377300 -0.000001 -0.000001 9.100190 0.234864 3.289830 6.456720 -0.000001 -0.000000 8.752180 1.666070 9.082550 12.994200 -0.242716 4.980390 -92.318000 6.950470 -71.504900 5.348090 -0.000007 -0.000001 -74.593600 27.919000 2.149670 24.328600 0.000019 0.000005 13.980200 31.180200 -25.681300 22.291600 -0.000001 0.000005 -3.839880 5.040300 6.450140 12.994500 -0.242716 -4.980390 87.780000 6.503940 -71.107200 -5.348130 -0.000001 -0.000004 -70.890500 -14.751100 -15.308400 -24.328900 0.000322 -0.000009 0.228348 -0.234026 -135.688000 -22.291500 -0.000108 -0.000004 63.068300 5.349440 -1.363360 -2.192480 -6.469440 -0.000000 -174.680000 3.155550 -5.145060 39.081100 -0.000007 -0.000012 0.310942 -0.687433 24.339100 40.985400 -0.000006 -0.000013 1.701880 5.988560 -74.173300 11.754300 -0.000000 0.000003 0.000182 0.164499 -9.904980 -2.192510 6.469440 -0.000001 -172.405000 8.398570 -178.818000 -39.081100 -0.002282 -0.040193 0.034385 -0.128738 13.560800 -40.985400 0.000008 0.000006 -0.145330 0.613789 -69.457100 -11.754300 -0.000006 -0.000006 -0.009432 0.267008 -5.726710
0.000000 0.000000 0.000000 0.000000 0.000000 -0.000000 -1.616860 92.493300 -0.522156 85.347400 1.027800 1.095530 15.735700 0.000005 -0.000001 63.174300 88.350200 -60.867600 8.984550 -0.406207 -0.000000 -4.783390 -1.740060 4.544460 16.377300 -0.000001 -0.000001 9.176640 0.303932 3.125370 6.456720 -0.000001 -0.000000 8.807490 1.722280 8.892580 12.994200 -0.242716 4.980390 -92.331600 6.991840 -71.505900 5.348090 -0.000007 -0.000001 -74.602200 27.923300 2.255660 24.328600 0.000019 0.000005 13.946900 31.053500 -25.707800 22.291600 -0.000001 0.000005 -3.900580 5.037390 6.513860 12.994500 -0.242716 -4.980390 87.795100 6.435480 -71.042000 -5.348130 -0.000001 -0.000004 -70.977100 -14.466500 -15.220100 -24.328900 0.000322 -0.000009 2.243380 -2.289110 -135.554000 -22.291500 -0.000108 -0.000004 62.590900 5.311730 -0.257000 -2.192480 -6.469440 -0.000000 -174.678000 3.120950 -5.097810 39.081100 -0.000007 -0.000012 0.313362 -0.691221 24.387700 40.985400 -0.000006 -0.000013 1.699580 5.994300 -74.220900 11.754300 -0.000000 0.000003 0.000156 0.164959 -9.886310 -2.192510 6.469440 -0.000001 -172.399000 8.415050 -178.769000 -39.081100 -0.002282 -0.040193 0.035918 -0.134649 13.604200 -40.985400 0.000008 0.000006 -0.027702 0.618679 -69.525200 -11.754300 -0.000006 -0.000006 -0.009682 0.268912 -5.648840
0.000000 0.000000 0.000000 0.000000 0.000000 -0.000000 -1.631730 92.496900 -0.520746 85.394700 0.976066 1.082910 15.735700 0.000005 -0.000001 62.476600 88.344300 -60.150700 8.984550 -0.406207 -0.000000 -4.790050 -1.783480 4.581050 16.377300 -0.000001 -0.000001 9.213220 0.380148 3.014250 6.456720 -0.000001 -0.000000 8.900760 1.848980 8.692940 12.994200 -0.242716 4.980390 -92.338600 7.008710 -71.495400 5.348090 -0.000007 -0.000001 -74.614700 27.895400 2.317140 24.328600 0.000019 0.000005 13.976100 31.153800 -25.691600 22.291600 -0.000001 0.000005 -3.850660 5.042070 6.411450 12.994500 -0.242716 -4.980390 87.769500 6.535110 -71.108000 -5.348130 -0.000001 -0.000004 -69.950500 -13.059000 -14.615900 -24.328900 0.000322 -0.000009 9.041440 -9.057020 -134.690000 -22.291500 -0.000108 -0.000004 60.867500 5.332690 -0.877948 -2.192480 -6.469440 -0.000000 -174.712000 3.070570 -5.058630 39.081100 -0.000007 -0.000012 0.310806 -0.687904 24.314900 40.985400 -0.000006 -0.000013 1.683890 5.985740 -74.190600 11.754300 -0.000000 0.000003 0.000156 0.164964 -9.886110 -2.192510 6.469440 -0.000001 -172.448000 8.507610 -178.786000 -39.081100 -0.002282 -0.040193 0.036946 -0.138734 13.619500 -40.985400 0.000008 0.000006 0.019484 0.727342 -69.541600 -11.754300 -0.000006 -0.000006 -0.009681 0.268903 -5.649210
0.000000 0.000000 0.000000 0.000000 0.000000 -0.000000 -1.671330 92.488500 -0.505650 85.396800 0.999401 1.131200 15.735700 0.000005 -0.000001 62.373300 88.329600 -60.008400 8.984550 -0.406207 -0.000000 -4.765620 -1.806130 4.658340 16.377300 -0.000001 -0.000001 9.231790 0.472100 2.884830 6.456720 -0.000001 -0.000000 8.975730 1.876010 8.553230 12.994200 -0.242716 4.980390 -92.338500 7.018860 -71.521100 5.348090 -0.000007 -0.000001 -74.651700 27.942500 2.335920 24.328600 0.000019 0.000005 13.947700 31.113700 -25.670100 22.291600 -0.000001 0.000005 -3.853660 5.037910 6.502570 12.994500 -0.242716 -4.980390 87.722700 6.677630 -71.120000 -5.348130 -0.000001 -0.000004 -68.193500 -10.892800 -13.834800 -24.328900 0.000322 -0.000009 16.111800 -15.847100 -133.389000 -22.291500 -0.000108 -0.000004 59.477800 5.444190 -4.451560 -2.192480 -6.469440 -0.000000 -174.681000 3.014900 -5.025750 39.081100 -0.000007 -0.000012 0.312171 -0.689528 24.358500 40.985400 -0.000006 -0.000013 1.680200 6.079120 -74.234200 11.754300 -0.000000 0.000003 0.000219 0.163861 -9.930870 -2.192510 6.469440 -0.000001 -172.429000 8.578240 -178.729000 -39.081100 -0.002282 -0.040193 0.037167 -0.139630 13.621100 -40.985400 0.000008 0.000006 0.129082 0.753949 -69.543900 -11.754300 -0.000006 -0.000006 -0.009470 0.267302 -5.714690
0.000000 0.000000 0.000000 0.000000 0.000000 -0.000000 -1.693690 92.485100 -0.493574 85.420700 1.012950 1.151630 15.735700 0.000005 -0.000001 62.124800 88.310200 -59.741800 8.984550 -0.406207 -0.000000 -4.737090 -1.838480 4.693680 16.377300 -0.000001 -0.000001 9.245930 0.490733 2.888030 6.456720 -0.000001 -0.000000 8.993890 1.960160 8.367340 12.994200 -0.242716 4.980390 -92.342500 7.014310 -71.480000 5.348090 -0.000007 -0.000001 -74.653300 27.914900 2.306440 24.328600 0.000019 0.000005 13.947300 31.080700 -25.690800 22.291600 -0.000001 0.000005 -3.973670 5.040160 6.453310 12.994500 -0.242716 -4.980390 87.695300 6.741830 -71.076700 -5.348130 -0.000001 -0.000004 -66.551500 -8.527190 -13.290700 -24.328900 0.000322 -0.000009 22.843800 -21.991500 -131.633000 -22.291500 -0.000108 -0.000004 58.031700 5.556960 -9.089500 -2.192480 -6.469440 -0.000000 -174.685000 3.001990 -4.994150 39.081100 -0.000007 -0.000012 0.311256 -0.687775 24.350100 40.985400 -0.000006 -0.000013 1.671250 6.112790 -74.232800 11.754300 -0.000000 0.000003 0.000160 0.164880 -9.889500 -2.192510 6.469440 -0.000001 -172.447000 8.664520 -178.695000 -39.081100 -0.002282 -0.040193 0.037832 -0.142288 13.629100 -40.985400 0.000008 0.000006 0.244357 0.827622 -69.615600 -11.754300 -0.000006 -0.000006 -0.009957 0.270986 -5.564040
